<mxfile host="65bd71144e">
    <diagram id="TGkQjbrcBp94Ynd5J3Db" name="Page-1">
        <mxGraphModel dx="1201" dy="1028" grid="1" gridSize="10" guides="1" tooltips="1" connect="1" arrows="1" fold="1" page="1" pageScale="1" pageWidth="1100" pageHeight="850" math="0" shadow="0">
            <root>
                <mxCell id="0"/>
                <mxCell id="1" parent="0"/>
                <mxCell id="2" value="" style="rounded=0;whiteSpace=wrap;html=1;fillColor=#262626;gradientColor=#0A0A0A;strokeColor=#666666;" vertex="1" parent="1">
                    <mxGeometry width="1100" height="850" as="geometry"/>
                </mxCell>
            </root>
        </mxGraphModel>
    </diagram>
</mxfile>